<svg height="512" viewBox="0 0 192 192" width="512" xmlns="http://www.w3.org/2000/svg" xmlns:xlink="http://www.w3.org/1999/xlink"><linearGradient id="New_Gradient_Swatch_1" gradientUnits="userSpaceOnUse" x1="66.576" x2="131.179" y1="178.576" y2="113.972"><stop offset="0" stop-color="#34cdfa"/><stop offset="1" stop-color="#e8d9f1"/></linearGradient><g id="_12-patience" data-name="12-patience"><g id="Flat"><path d="m120 96c0-7.688 4.65-13.269 12.238-21.736 8.804-9.826 19.762-22.056 19.762-42.264a8 8 0 0 0 -8-8h-96a8 8 0 0 0 -8 8c0 20.208 10.958 32.438 19.762 42.264 7.588 8.467 12.238 14.048 12.238 21.736s-4.65 13.269-12.238 21.736c-8.804 9.827-19.762 22.056-19.762 42.264a8 8 0 0 0 8 8h96a8 8 0 0 0 8-8c0-20.208-10.958-32.437-19.762-42.264-7.588-8.467-12.238-14.048-12.238-21.736z" fill="#e6f9fe"/><path d="m126.28 68.925c8.306-9.27 17.72-19.776 17.72-36.925h-96c0 17.149 9.414 27.655 17.72 36.925 7.344 8.196 14.28 15.937 14.28 27.075a27.545 27.545 0 0 1 -4.472 14.775c12.608-4.377 24.853-9.321 36.517-15.937.466-10.516 7.155-18.008 14.235-25.913z" fill="#ccf2fe"/><path d="m112 96c0-.395.028-.776.045-1.162-11.664 6.616-23.909 11.56-36.517 15.937a89.134 89.134 0 0 1 -9.808 12.3c-8.306 9.27-17.72 19.776-17.72 36.925h96c0-17.149-9.414-27.655-17.72-36.925-7.344-8.196-14.28-15.937-14.28-27.075z" fill="url(#New_Gradient_Swatch_1)"/><rect fill="#99e6fd" height="40" rx="8" width="128" x="32"/><path d="m56 32v-24a8 8 0 0 1 8-8h-24a8 8 0 0 0 -8 8v24a8 8 0 0 0 8 8h24a8 8 0 0 1 -8-8z" fill="#67d9fb"/><rect fill="#99e6fd" height="40" rx="8" width="128" x="32" y="152"/><path d="m56 184v-24a8 8 0 0 1 8-8h-24a8 8 0 0 0 -8 8v24a8 8 0 0 0 8 8h24a8 8 0 0 1 -8-8z" fill="#67d9fb"/><circle cx="112" cy="136" fill="#fff" r="8"/></g></g></svg>